# xmcd CD database file
#
# Track frame offsets:
#	150
#	19762
#	33547
#	50419
#	64521
#	77969
#	91077
#	105250
#	117317
#	140280
#	154089
#	173390
#	188191
#	200471
#	216777
#	232553
#	245279
#	260759
#	273728
#	288869
#
# Disc length: 4104 seconds
#
# Revision: 2
# Processed by: cddbd v1.5.2PL0 Copyright (c) Steve Scherf et al.
# Submitted via: CdAid (MTCDDB.DLL V2003.12.21)
#
DISCID=08100614
DTITLE=Kenny Rogers - Complete - Volume Three - Embarking On A Solo Life
DYEAR=1998
DGENRE=Country
TTITLE0=Coward of The County
TTITLE1=What Are We Doin' In Love
TTITLE2=San Francisco Mabel Joy
TTITLE3=Today I Started Loving You Again
TTITLE4=We Love Each Other
TTITLE5=You Are So Beautiful
TTITLE6=Daytime Friends
TTITLE7=Blaze Of Glory
TTITLE8=The King Of Oak Street
TTITLE9=You Turn The Light On
TTITLE10=She Believes In Me
TTITLE11=Santiago Midnight Moonlight
TTITLE12=Goodbye Marie
TTITLE13=Just The Way You Are
TTITLE14=The World Needs A Melody
TTITLE15=Laura (What's He Got That I Ain't Got)
TTITLE16=I Wasn't Man Enough
TTITLE17=Somewhere Between Lovers And Friends
TTITLE18=Till I Can Make It On My Own
TTITLE19=So In Love With You
EXTD=ID3G: 2 YEAR: 1998
EXTT0=
EXTT1=
EXTT2=
EXTT3=
EXTT4=
EXTT5=
EXTT6=
EXTT7=
EXTT8=
EXTT9=
EXTT10=
EXTT11=
EXTT12=
EXTT13=
EXTT14=
EXTT15=
EXTT16=
EXTT17=
EXTT18=
EXTT19=
PLAYORDER=
